# xmcd
#
# Track frame offsets:
#	150
#	15932
#	29974
#	48944
#	69473
#	78784
#	94418
#	110285
#	118999
#	142723
#	157373
#	169390
#	184134
#	193796
#	212672
#	224400
#	237015
#	249323
#	257575
#	273136
#
# Disc length: 3852 seconds
#
# Revision: 0
# Processed by: cddbd v1.5.2PL0 Copyright (c) Steve Scherf et al.
# Submitted via: EasyCDDAExtractor 16.0.6.1
#
DISCID=1d0f0a14
DTITLE=Συλλογικός δίσκος - Τα μεγάλα τραγούδια-Μ. Θεοδωράκης 08
DYEAR=2010
DGENRE=Λαϊκή
TTITLE0=Φαραντούρη Μαρία - Ένα το χελιδόνι [Οδυσσέας Ελύτης]
TTITLE1=Μητσιάς Μανώλης - Το πάθος που διώκεται [Λίνα Νικολακοπούλου]
TTITLE2=Σουλτάτου Μαρία - Μέρα Μαγιού μού μίσεψες [Γιάννης Ρίτσος]
TTITLE3=Γλυκερία - Αγάπη δίχως άκρη [Νίκος Γκάτσος]
TTITLE4=Μερκούρη Μελίνα - Καϋμός [Δημήτρης Χριστοδούλου]
TTITLE5=Αρλέτα - Όμορφη πόλη [Γιάννης Θεοδωράκης]
TTITLE6=Μητσιάς Μανώλης - Χάθηκα [Γιάννης Θεοδωράκης]
TTITLE7=Ζορμπαλά Μαργαρίτα - Εκεί στην ξενητειά που ζεις [Ελένη Μπότσαρη]
TTITLE8=Πανδής Πέτρος - Χαρά, χαρά [Μανόλης Αναγνωστάκης]
TTITLE9=Θεοδωράκης Μίκης - Μάννα, το μάνα τ' ουρανού [Μάνος Ελευθερίου]
TTITLE10=Πουλόπουλος Γιάννης - Είναι μακρύς ο δρόμος σου [Πάνος Κοκκινόπουλος]
TTITLE11=Ζορμπαλά Μαργαρίτα - Επιβάτης [Κώστας Τριπολίτης]
TTITLE12=Μάνου Αφροδίτη - Σού 'στειλα [Φώντας Λάδης]
TTITLE13=Μπιρμπίλη Σούλα - Προδομένη μου αγάπη [Μίκης Θεοδωράκης]
TTITLE14=Δημητριάδη Μαρία - Ο ταμένος [Γιάννης Ρίτσος]
TTITLE15=Μπογδάνος Γιάννης - Όλοι [Κώστας Τριπολίτης]
TTITLE16=Συρρής Γιάννης - Προς το υπουργείο εργασίας [Φώντας Λάδης]
TTITLE17=Θεοδωράκης Μίκης - Λατρεύω το σωτήρα μου [Brendan Francis Behan, απ. 
TTITLE17=Β. Ρώτας]
TTITLE18=Λύδια Γιώτα - Ο ουρανός είναι κλειστός [Ερρίκος Θαλασσινός]
TTITLE19=Άνευ ερμηνευτού - Θα γίνεις δικιά μου [οργανικό]
EXTD=
EXTT0=
EXTT1=
EXTT2=
EXTT3=
EXTT4=
EXTT5=
EXTT6=
EXTT7=
EXTT8=
EXTT9=
EXTT10=
EXTT11=
EXTT12=
EXTT13=
EXTT14=
EXTT15=
EXTT16=
EXTT17=
EXTT18=
EXTT19=
PLAYORDER=
